<?xml version="1.0" encoding="UTF-8" standalone="no"?>
<svg
   xmlns:dc="http://purl.org/dc/elements/1.1/"
   xmlns:cc="http://creativecommons.org/ns#"
   xmlns:rdf="http://www.w3.org/1999/02/22-rdf-syntax-ns#"
   xmlns:svg="http://www.w3.org/2000/svg"
   xmlns="http://www.w3.org/2000/svg"
   xmlns:sodipodi="http://sodipodi.sourceforge.net/DTD/sodipodi-0.dtd"
   xmlns:inkscape="http://www.inkscape.org/namespaces/inkscape"
   width="50"
   height="50"
   viewBox="0 0 50 50"
   fill="none"
   version="1.1"
   id="svg11"
   sodipodi:docname="facebook.svg"
   inkscape:version="0.92.4 (5da689c313, 2019-01-14)">
  <metadata
     id="metadata15">
    <rdf:RDF>
      <cc:Work
         rdf:about="">
        <dc:format>image/svg+xml</dc:format>
        <dc:type
           rdf:resource="http://purl.org/dc/dcmitype/StillImage" />
        <dc:title></dc:title>
      </cc:Work>
    </rdf:RDF>
  </metadata>
  <sodipodi:namedview
     pagecolor="#ffffff"
     bordercolor="#666666"
     borderopacity="1"
     objecttolerance="10"
     gridtolerance="10"
     guidetolerance="10"
     inkscape:pageopacity="0"
     inkscape:pageshadow="2"
     inkscape:window-width="1366"
     inkscape:window-height="721"
     id="namedview13"
     showgrid="false"
     inkscape:zoom="4.72"
     inkscape:cx="25"
     inkscape:cy="25"
     inkscape:window-x="-4"
     inkscape:window-y="-4"
     inkscape:window-maximized="1"
     inkscape:current-layer="svg11" />
  <g
     clip-path="url(#clip0)"
     id="g4">
    <path
       d="M42.6758 1.65611e-10H7.32422C0 1.65528e-10 0 0 0 5V45C0 50 0 50 7.32422 50H22.0703V32.3242H16.2109V23.5352H22.0703V17.5781C22.0703 12.7316 26.0128 8.78906 30.8594 8.78906H39.7461V17.5781H30.8594V23.5352H39.7461L38.2812 32.3242H30.8594V50H42.6758C50 50 50 50 50 45.7951V7.32422C50 -4.76837e-07 50 -3.68886e-07 42.6758 1.65611e-10Z"
       fill="white"
       id="path2" />
  </g>
  <defs
     id="defs9">
    <clipPath
       id="clip0">
      <rect
         width="50"
         height="50"
         fill="white"
         id="rect6" />
    </clipPath>
  </defs>
</svg>
