<?xml version="1.0" encoding="UTF-8" standalone="no"?>
<svg
   xmlns:dc="http://purl.org/dc/elements/1.1/"
   xmlns:cc="http://creativecommons.org/ns#"
   xmlns:rdf="http://www.w3.org/1999/02/22-rdf-syntax-ns#"
   xmlns:svg="http://www.w3.org/2000/svg"
   xmlns="http://www.w3.org/2000/svg"
   xmlns:sodipodi="http://sodipodi.sourceforge.net/DTD/sodipodi-0.dtd"
   xmlns:inkscape="http://www.inkscape.org/namespaces/inkscape"
   width="50"
   height="50"
   viewBox="0 0 50 50"
   fill="none"
   version="1.1"
   id="svg4"
   sodipodi:docname="instagram.svg"
   inkscape:version="0.92.4 (5da689c313, 2019-01-14)">
  <metadata
     id="metadata10">
    <rdf:RDF>
      <cc:Work
         rdf:about="">
        <dc:format>image/svg+xml</dc:format>
        <dc:type
           rdf:resource="http://purl.org/dc/dcmitype/StillImage" />
        <dc:title></dc:title>
      </cc:Work>
    </rdf:RDF>
  </metadata>
  <defs
     id="defs8" />
  <sodipodi:namedview
     pagecolor="#ffffff"
     bordercolor="#666666"
     borderopacity="1"
     objecttolerance="10"
     gridtolerance="10"
     guidetolerance="10"
     inkscape:pageopacity="0"
     inkscape:pageshadow="2"
     inkscape:window-width="1366"
     inkscape:window-height="721"
     id="namedview6"
     showgrid="false"
     inkscape:zoom="4.72"
     inkscape:cx="25"
     inkscape:cy="25"
     inkscape:window-x="-4"
     inkscape:window-y="-4"
     inkscape:window-maximized="1"
     inkscape:current-layer="svg4" />
  <path
     d="M42.6758 0H7.32422C0 0 -1.66901e-10 0 0 7.32422V42.6758C0 50 0 50 7.32422 50H42.6758C50 50 50 50 50 42.6758V7.32422C50 0 50 0 42.6758 0ZM25.0977 38.0859C17.828 38.0859 11.9141 32.172 11.9141 24.9023C11.9141 17.6327 17.828 11.7188 25.0977 11.7188C32.3673 11.7188 38.2812 17.6327 38.2812 24.9023C38.2812 32.172 32.3673 38.0859 25.0977 38.0859ZM39.7461 14.6484C37.323 14.6484 35.3516 12.677 35.3516 10.2539C35.3516 7.83081 37.323 5.85938 39.7461 5.85938C42.1692 5.85938 44.1406 7.83081 44.1406 10.2539C44.1406 12.677 42.1692 14.6484 39.7461 14.6484Z"
     fill="white"
     id="path2" />
</svg>
