<?xml version="1.0" encoding="UTF-8" standalone="no"?>
<svg
   xmlns:dc="http://purl.org/dc/elements/1.1/"
   xmlns:cc="http://creativecommons.org/ns#"
   xmlns:rdf="http://www.w3.org/1999/02/22-rdf-syntax-ns#"
   xmlns:svg="http://www.w3.org/2000/svg"
   xmlns="http://www.w3.org/2000/svg"
   xmlns:sodipodi="http://sodipodi.sourceforge.net/DTD/sodipodi-0.dtd"
   xmlns:inkscape="http://www.inkscape.org/namespaces/inkscape"
   width="50"
   height="50"
   viewBox="0 0 50 50"
   fill="none"
   version="1.1"
   id="svg6"
   sodipodi:docname="odnoklassniki.svg"
   inkscape:version="0.92.4 (5da689c313, 2019-01-14)">
  <metadata
     id="metadata12">
    <rdf:RDF>
      <cc:Work
         rdf:about="">
        <dc:format>image/svg+xml</dc:format>
        <dc:type
           rdf:resource="http://purl.org/dc/dcmitype/StillImage" />
        <dc:title></dc:title>
      </cc:Work>
    </rdf:RDF>
  </metadata>
  <defs
     id="defs10" />
  <sodipodi:namedview
     pagecolor="#ffffff"
     bordercolor="#666666"
     borderopacity="1"
     objecttolerance="10"
     gridtolerance="10"
     guidetolerance="10"
     inkscape:pageopacity="0"
     inkscape:pageshadow="2"
     inkscape:window-width="1366"
     inkscape:window-height="721"
     id="namedview8"
     showgrid="false"
     inkscape:zoom="4.72"
     inkscape:cx="25"
     inkscape:cy="25"
     inkscape:window-x="-4"
     inkscape:window-y="-4"
     inkscape:window-maximized="1"
     inkscape:current-layer="svg6" />
  <path
     d="M25.0271 19.9949C27.8181 19.9859 30.0409 17.7449 30.0308 14.9476C30.0197 12.1502 27.7931 9.92205 25.001 9.91992C22.1856 9.91726 19.9372 12.1854 19.959 15.0082C19.9798 17.7949 22.2276 20.0066 25.0271 19.9949Z"
     fill="white"
     id="path2" />
  <path
     d="M47.3404 0H2.65957C1.19096 0 0 1.19043 0 2.65957V47.3404C0 48.8096 1.19096 50 2.65957 50H47.3404C48.8096 50 50 48.8096 50 47.3404V2.65957C50 1.19043 48.8096 0 47.3404 0ZM25.0426 4.66277C30.7335 4.67713 35.3027 9.33351 35.2745 15.0894C35.2441 20.7117 30.6005 25.2691 24.9186 25.25C19.2931 25.2309 14.6803 20.5676 14.7122 14.933C14.7457 9.2367 19.3617 4.64574 25.0426 4.66277ZM36.5707 29.2936C35.3122 30.5867 33.7973 31.5207 32.1144 32.1745C30.5234 32.7894 28.7803 33.1011 27.0548 33.3074C27.3154 33.5915 27.4383 33.7293 27.6 33.8936C29.9426 36.2473 32.2947 38.5915 34.6293 40.9521C35.4239 41.7558 35.592 42.7532 35.1532 43.6888C34.6739 44.7128 33.6021 45.3846 32.55 45.3122C31.884 45.2654 31.3649 44.934 30.9043 44.4707C29.1362 42.6915 27.3346 40.9457 25.6037 39.1351C25.1 38.6074 24.8574 38.7058 24.4117 39.1649C22.6335 40.9957 20.8277 42.7984 19.0101 44.5904C18.1936 45.3957 17.2229 45.5399 16.2745 45.0808C15.2681 44.5931 14.6287 43.566 14.6782 42.5324C14.7122 41.8346 15.0559 41.3016 15.5351 40.8229C17.8521 38.5085 20.1638 36.1883 22.4766 33.8697C22.6303 33.7165 22.7729 33.5521 22.9957 33.3138C19.842 32.9846 16.9984 32.209 14.5649 30.3048C14.2633 30.0681 13.9511 29.8394 13.6745 29.5745C12.6096 28.5511 12.5027 27.3803 13.3457 26.1723C14.066 25.1394 15.2777 24.8617 16.5356 25.4548C16.7798 25.5691 17.0117 25.7133 17.234 25.867C21.7702 28.984 28.0027 29.0707 32.5564 26.0085C33.0069 25.6644 33.4894 25.3793 34.0489 25.2378C35.1367 24.9585 36.1484 25.3569 36.7324 26.308C37.4011 27.3915 37.392 28.4511 36.5707 29.2936Z"
     fill="white"
     id="path4" />
</svg>
