<?xml version="1.0" encoding="UTF-8" standalone="no"?>
<svg
   xmlns:dc="http://purl.org/dc/elements/1.1/"
   xmlns:cc="http://creativecommons.org/ns#"
   xmlns:rdf="http://www.w3.org/1999/02/22-rdf-syntax-ns#"
   xmlns:svg="http://www.w3.org/2000/svg"
   xmlns="http://www.w3.org/2000/svg"
   xmlns:sodipodi="http://sodipodi.sourceforge.net/DTD/sodipodi-0.dtd"
   xmlns:inkscape="http://www.inkscape.org/namespaces/inkscape"
   width="50"
   height="50"
   viewBox="0 0 50 50"
   fill="none"
   version="1.1"
   id="svg4"
   sodipodi:docname="vkontacte.svg"
   inkscape:version="0.92.4 (5da689c313, 2019-01-14)">
  <metadata
     id="metadata10">
    <rdf:RDF>
      <cc:Work
         rdf:about="">
        <dc:format>image/svg+xml</dc:format>
        <dc:type
           rdf:resource="http://purl.org/dc/dcmitype/StillImage" />
        <dc:title></dc:title>
      </cc:Work>
    </rdf:RDF>
  </metadata>
  <defs
     id="defs8" />
  <sodipodi:namedview
     pagecolor="#ffffff"
     bordercolor="#666666"
     borderopacity="1"
     objecttolerance="10"
     gridtolerance="10"
     guidetolerance="10"
     inkscape:pageopacity="0"
     inkscape:pageshadow="2"
     inkscape:window-width="1366"
     inkscape:window-height="721"
     id="namedview6"
     showgrid="false"
     inkscape:zoom="4.72"
     inkscape:cx="25"
     inkscape:cy="25"
     inkscape:window-x="-4"
     inkscape:window-y="-4"
     inkscape:window-maximized="1"
     inkscape:current-layer="svg4" />
  <path
     d="M47.3404 0H2.65957C1.19043 0 0 1.19096 0 2.65957V47.3404C0 48.809 1.19043 50 2.65957 50H47.3404C48.8096 50 50 48.809 50 47.3404V2.65957C50 1.19096 48.8096 0 47.3404 0ZM39.8239 28.1612C41.1867 29.491 42.6277 30.7431 43.8516 32.2128C44.3931 32.8617 44.9037 33.5319 45.2926 34.2867C45.8463 35.3633 45.3463 36.5457 44.3814 36.609L38.3941 36.6074C36.8484 36.7346 35.6176 36.1122 34.5793 35.0553C33.7521 34.2122 32.983 33.3122 32.1856 32.4415C31.8606 32.0835 31.516 31.7468 31.1085 31.4809C30.2926 30.9511 29.5835 31.1128 29.1149 31.9644C28.6383 32.8314 28.5282 33.7931 28.4846 34.7596C28.4181 36.1718 27.9926 36.5404 26.5761 36.6059C23.5495 36.7484 20.6766 36.2888 18.008 34.7638C15.6521 33.4181 13.8303 31.517 12.2431 29.367C9.14947 25.1739 6.78032 20.5713 4.65266 15.8367C4.1734 14.7702 4.52394 14.1995 5.69894 14.1777C7.65426 14.1388 9.60904 14.1441 11.5617 14.1755C12.3574 14.1878 12.8835 14.6431 13.1883 15.3931C14.2441 17.9915 15.5399 20.4638 17.1622 22.7564C17.5947 23.3665 18.0362 23.9755 18.6638 24.4069C19.3574 24.8835 19.8862 24.7266 20.2133 23.9527C20.4223 23.459 20.5128 22.9346 20.5574 22.4069C20.7128 20.6005 20.7314 18.7941 20.4633 16.9947C20.2957 15.8691 19.6617 15.142 18.5394 14.9293C17.9681 14.8207 18.0516 14.609 18.3293 14.283C18.8112 13.7181 19.2654 13.3691 20.1676 13.3691L26.4497 13.3682C26.7718 13.3681 27.0997 13.3819 27.401 13.496C28.0774 13.7523 28.2624 14.2339 28.3835 15.1293L28.3899 22.6468C28.3787 23.0628 28.5979 24.2947 29.3447 24.567C29.942 24.7644 30.3383 24.2851 30.6957 23.9053C32.317 22.1846 33.4723 20.1521 34.508 18.0495C34.9638 17.1223 35.359 16.1617 35.742 15.2005C36.0255 14.4894 36.4691 14.1394 37.2713 14.1521L43.7851 14.159C43.9766 14.159 44.1729 14.1612 44.3628 14.1926C45.4596 14.3814 45.7601 14.8537 45.4213 15.925C44.8872 17.6074 43.8473 19.0096 42.8303 20.4149C41.7436 21.9176 40.5835 23.3707 39.5048 24.8809C38.5165 26.266 38.5963 26.9617 39.8239 28.1612Z"
     fill="white"
     id="path2" />
</svg>
